PathFileType	4	(X/Y/Z)	Patient4_TMGait_0pt8_01_left_09.trc.trc
DataRate	CameraRate	NumFrames	NumMarkers	Units	OrigDataRate	OrigDataStartFrame	OrigNumFrames
90.909090909091	90.909090909091	4	33	mm	90.909090909091	71	       141
Frame#	Time	Sacral			L.Shoulder			Chest			R.Shoulder			Neck			R.ASIS			L.ASIS			R.Thigh.Superior			R.Thigh.Lateral			R.Thigh.Inferior			R.Patella			L.Thigh.Superior			L.Thigh.Lateral			L.Thigh.Inferior			L.Patella			L.Shank.Superior			L.Shank.Lateral			L.Shank.Inferior			R.Shank.Superior			R.Shank.Lateral			R.Shank.Inferior			R.Heel			R.Midfoot.Superior			R.Midfoot.Lateral			R.Toe			L.Heel			L.Midfoot.Lateral			L.Midfoot.Superior			L.Toe			L.Elbow			L.Wrist			R.Elbow			R.Wrist			
		X1	Y1	Z1	X2	Y2	Z2	X3	Y3	Z3	X4	Y4	Z4	X5	Y5	Z5	X6	Y6	Z6	X7	Y7	Z7	X8	Y8	Z8	X9	Y9	Z9	X10	Y10	Z10	X11	Y11	Z11	X12	Y12	Z12	X13	Y13	Z13	X14	Y14	Z14	X15	Y15	Z15	X16	Y16	Z16	X17	Y17	Z17	X18	Y18	Z18	X19	Y19	Z19	X20	Y20	Z20	X21	Y21	Z21	X22	Y22	Z22	X23	Y23	Z23	X24	Y24	Z24	X25	Y25	Z25	X26	Y26	Z26	X27	Y27	Z27	X28	Y28	Z28	X29	Y29	Z29	X30	Y30	Z30	X31	Y31	Z31	X32	Y32	Z32	X33	Y33	Z33	

71	10.050000000000	854.322349721140	994.170565569006	441.447223558139	1061.272187725831	1429.423424249664	285.966339489543	1143.931889519819	1348.784837350870	453.647590584409	1044.541165822555	1418.756489669297	620.618856487113	1032.590802539743	1483.534756791616	441.975664661701	1075.343874540776	934.406185273459	573.904108748996	1075.432493143481	953.008467531026	296.159642471298	1157.226266596265	771.877614361321	548.429405531577	1120.237530005158	647.730783893430	626.199957445816	1214.731439216263	616.737186048407	550.824698125802	1252.981658831828	533.907934456320	571.362011877885	1072.402776908655	725.008882854124	322.899491526558	952.406133936305	634.036614046894	257.971460996237	1008.886767221380	538.325809214129	321.899610926858	991.936796755576	473.243746669955	330.970962319691	958.544003979636	407.148679178216	322.382419256065	855.297517555257	304.390470160606	273.654011407834	892.768704237777	187.611660622425	343.891248965675	1237.306463029189	442.365512067703	580.255133324269	1181.862209082235	328.159817324570	641.248247127350	1253.756669366664	242.590784287059	593.173181770355	1166.344227196835	51.751579202798	561.979560733026	1322.557830904802	134.911049599218	609.432400335262	1247.259799648118	53.975743928087	639.410621478666	1447.015428682476	105.583756898249	641.680905149339	754.878464337654	38.831909775060	392.492996293815	822.051978933960	35.351033901337	306.298791114837	907.602725994669	95.609605728871	328.284069716793	1032.958074047441	43.321914414350	288.399913688570	1144.060780353523	1122.015798811769	113.585609916145	1394.865379268313	1071.574073964717	146.466667327387	893.303625733376	1102.246480997016	711.190329817662	856.471000714195	844.508816538570	727.684478770450	
72	10.061000000000	856.706216427540	991.527566438591	443.913196891893	1061.081640550019	1427.378631172070	287.883355717119	1144.567966631348	1347.236444188211	455.386907860341	1045.237421525817	1417.085068232801	622.480472782554	1032.822274951945	1481.424842628100	443.757327266986	1078.024652242782	931.892176391869	575.827978944233	1077.529393796435	951.015906389757	297.921448650514	1158.320314745649	767.149968642836	550.988086540568	1118.188126623439	642.926226612965	627.339009651561	1213.057205709156	611.716161972837	552.607326827101	1249.669845384357	529.499893493855	571.876620123563	1072.408926014375	722.640150561557	324.033913318092	951.055293449507	632.868487223652	259.370270506735	1006.666383401413	536.427048177705	322.998956591887	989.055803976990	471.053963347552	331.902698236902	954.569037961900	405.458510024307	323.257118596615	849.589085141231	304.349229356239	274.304808774346	885.440990229518	186.827490773307	344.104798743715	1235.602853463567	438.006156858405	580.849754597619	1181.312830664764	322.678420952308	640.599854512411	1255.264586326353	238.534846452716	592.854186773424	1170.931192913563	47.393943761996	560.396383223087	1325.959811502534	131.584691006118	608.651590511289	1251.190178655202	50.484034466497	638.436809563112	1450.529578434531	103.388965504947	642.036650085442	745.969262599473	38.776547739186	392.405936273611	813.222342216826	35.239732339837	306.294276659224	898.868621881880	95.449893483101	328.336431974770	1024.193570116385	42.922417443492	288.343731820883	1146.182461403096	1121.179981952886	115.285998630912	1398.027294633355	1081.717504744401	150.154238139870	888.996600790416	1104.276598711847	713.425577522755	846.958662424039	847.507119240571	728.968469844068	
73	10.072000000000	859.191945412360	988.883828928901	446.675073987092	1060.817759770855	1425.232745332861	289.877925892447	1145.244467271004	1345.723076952683	457.199867080288	1045.997779257279	1415.418109071971	624.449180945247	1033.077435597775	1479.287165365831	445.655576612511	1080.887751421692	929.342503391654	577.875473763468	1079.705362953540	948.932485916261	299.925009898589	1159.865599115307	762.609037787601	553.541399006622	1116.634484555066	638.334760573850	628.240292113488	1211.915847349929	606.993168677537	554.214271500201	1246.775651780310	525.006084327827	572.211590567529	1072.901182313648	720.266326500000	325.350228657708	950.352312947196	631.511323277608	261.019740296063	1005.318995225748	534.369514412894	324.259796916917	987.118034262903	468.539016708458	332.973606638392	951.337295005978	403.513864042939	324.275313793871	844.399288865568	304.330159874821	275.081440474840	878.351975876226	185.990034623458	344.346755641443	1233.815882747873	433.504876289165	581.213252692174	1179.946979309309	317.455951784874	639.694906045748	1255.231310332868	234.292142607599	592.224480263242	1172.280370743267	44.094796546364	558.552036301679	1326.962515357557	127.551926236194	607.433614452869	1251.896163490059	47.284270447899	637.195324103306	1451.294042845900	99.105949491689	641.891018380943	737.028456045036	38.863692387448	392.262161903781	804.402892592346	35.165459161227	306.267116567772	890.201850889589	95.302848512792	328.358535020037	1015.477725283957	42.477127706314	288.267366285969	1147.901034752591	1119.968026465745	117.208084517456	1400.268812686078	1090.868097670644	153.933596654731	885.123406507707	1106.177256731776	715.756621217067	838.921232561694	850.226839054213	730.231708035522	
74	10.083000000000	861.710770704021	986.339905025646	449.681496205971	1060.538448803667	1423.047596663921	291.941052622800	1145.980195460117	1344.285506052591	459.087902260957	1046.844346194877	1413.811319746271	626.522113026283	1033.391840768194	1477.197856365779	447.671363606582	1083.851499477656	926.871975191276	580.047531262723	1081.916610609066	946.813845976080	302.169402067318	1161.825139773794	758.418074342769	556.062048185782	1115.643505804793	634.148162722403	628.968161668265	1211.345273011713	602.743365397805	555.666949591653	1244.418603431074	520.634746485578	572.423787502065	1073.885272445764	717.947357130014	326.862777605366	950.336639336584	629.987528239188	262.927787930583	1004.930697965503	532.183958318277	325.674564867894	986.226229920125	465.712597288570	334.152556882324	948.908919171204	401.344189910347	325.422092560458	839.796869965490	304.398982483467	275.979946227356	871.546289900666	185.164353147581	344.603486184780	1232.095926951942	429.073938116902	581.400726327728	1178.047551413103	312.668526432334	638.721525810135	1253.916661262204	230.026434657158	591.395452343890	1170.699134886304	41.823058327394	556.665310669523	1325.869147408379	122.977464948317	605.889329457374	1249.760790456134	44.439341486557	635.852177398987	1449.692584717880	93.030687938140	641.261386740587	728.076101501447	39.240730739041	392.048739566540	795.605959816820	35.198623880285	306.209462799374	881.650098887236	95.192568241449	328.323372513529	1006.818134459539	41.991075846733	288.169206439248	1149.179414055346	1118.378494467565	119.355432080641	1401.649162388974	1098.930335256188	157.777537110024	881.849944794523	1107.846874133460	718.148636269153	832.329540076866	852.555314647556	731.532783250064	
